<svg xmlns="http://www.w3.org/2000/svg" viewBox="0 0 70.236 76"><defs><style>.a{fill:#f5e221;}</style></defs><path class="a" d="M90.051,73.748c0,.078.316,1.264.316,1.264l-.633.789v-.395l-.316-.395v1.027a9.2,9.2,0,0,1-.395.869v.553s-.395,1.027-.395,1.106-2.924,6.32-2.924,6.32l-.395.474-.711.158-.948.553-1.027-.553s-.474-.948-.474-1.027a5.414,5.414,0,0,1,.237-.633l-.237-.553-.078-1.264a13.255,13.255,0,0,1,.948-1.264,10.159,10.159,0,0,0,.633-.948c.078-.078-.158-.869-.158-.869l-.078-1.738.316-.474.237-.948,2.291-.869s1.027-.553,1.106-.633a8.364,8.364,0,0,0,.395-.948l.474-.395a4.41,4.41,0,0,0,.553-.316,2.991,2.991,0,0,0,.078-.791s.395-.553.474-.553a4.682,4.682,0,0,1,.474.869S90.051,73.67,90.051,73.748ZM91,45.229l.158-.553-.395-.158-.395.158-.158.395-.553.158-.711.316-.474-.078-.553.237h-.633l-.711.474-.316.078-.791-.078s-.395.395-.474.395-.711.078-.711.078l-.869-.711-.474-.395-.395.078-.077-.158.869-.553-.474-.553-.474-.316-.395-.553-.237-.237L80.57,42.227l-.395-.158-.237-.158-.395-.158-.553-.474-.474-1.027s-.395-.948-.395-1.027a6.786,6.786,0,0,0-.553-.791l-.316-.078-.474-.395-.316-.078-.237-1.027-.158-1.185-.316-.711-.158-.237V34.4l-.791-.633-.316-.158-.316-.474-.078-.553.078-.237-.553-.474s-.633-1.106-.633-1.185a11.464,11.464,0,0,0-.711-1.027l-.078-.237-.474-.711V28.4a9.077,9.077,0,0,1-.869-.869,5.063,5.063,0,0,0-.158-.553l-.237-.316.237-.316.158.553.474.474.078.474.948.711.158-.316v-.395l.237-1.027v-.474L71.958,25H71.4L70.3,25.08l-.633-.237-.791-.237-.553.237-1.106.633-.711-.158L65.163,25l-1.027-.158-.633.078-.395-.474h-.789L62,24.289l-.474-.078-.158-.395s-.789-.316-.869-.316-1.264.316-1.264.316l-.711.711v.553l.237.553-.553.553-.633.078-.869-.553-1.027-.395s-.869-.158-.948-.158-.395-.395-.395-.395l-.078-.553-1.106-.474s-1.027-.078-1.106-.078-1.343-.395-1.343-.395l-.948-.553-.553-.316.078-.474.633.078a5.608,5.608,0,0,0,.553-.711v-.553l-.633-.633.553-.395.316-.633-.633.395-.316-.395L48.97,19l-.711.395-1.027-.316-.474.158-.474-.158-.869.474a6.306,6.306,0,0,0-.711-.316c-.078,0-1.422.078-1.422.078l-1.9.158-.948.553-.869.078-.948.633-1.58-.316a2.977,2.977,0,0,1-.789-.078c-.078-.078-.553-.633-.553-.633l-.474.237-.474.789-.711.791-1.817.711-.553.633-.078.474-.474.474-.317.869.078.395-.395.711-.711.711-.474.158-.869.633-1.027.158-.474.395-.393.791-.553.237-.553.474-.474.948-.316.553-1.106,1.027L22.978,32.9l-.633.711-.078.869.316.633v.791l-.316.474.316.633-.078,1.343-.711,1.185-.158.869-.711.948.395,1.027s-.158,1.185-.158,1.264.158.633.158.633l.789.553.395.789.395.316.474.711L24.4,47.917v.869l.633,1.027.869.474,1.106,1.106,1.185.948,1.422.869.474.158,1.9-.711,1.738-.158,1.106.316.869.395,1.027-.474,1.9-.633.553-.395,1.58-.158,1.422-.158,1.185,1.185.316.948.869.237L45.5,53.6l1.106-.078.395.158.395.553.395.237s.474.711.395.789a13.789,13.789,0,0,0-.237,1.659l-.158,1.264-.316.869-.395.316.395,1.106,1.185,1.185,1.185,1.422.633,1.027.158.711.237.633.474.711.474,1.422-.237.633.316,1.106s.395.869.395.948-.237,1.185-.237,1.264a1.17,1.17,0,0,1-.395.474,12.137,12.137,0,0,0-.869,1.264l-.237,1.5-.316.633.078,2.291.948,1.343,1.264,2.369.633,1.106v1.264l.158.791.316,1.659.553,1.58,1.106,1.264s.789,1.58.789,1.659.711,1.185.711,1.185v.791a1.71,1.71,0,0,1-.237.395l.395.711.316.158.078.316.395.316.473.395.316-.078L59,94.605h.474l.711-.078.474-.237H61.3l.553-.078.869.158h.316l.237-.158.633-.237.553.078,1.027-.474,1.185-.869,1.106-.948.789-.711.711-.948.316-.553.553-.316.474-.474.474-1.106.316-.789v-.474l-.237-.316.237-.395.474-.237,1.5-.553.633-.395.237-.553-.078-.237L74.412,83l-.078-.237-.078-1.185-.158-.316v-.474l-.316-.553.078-.474.395-.158,1.975-1.817.948-.711,1.185-.395,1.027-.711.316-.395.474-.553.316-.869-.158-.553-.078-1.975.158-1.185L80.5,69.8l-.316-.474-.474-.237v-.237l-.316-.948-.078-.553.237-.395-.237-.553.078-.237.316-.158-.633-.789-.237-.158.158-.553.316-.948.633-.869.395-.948.158-.633.474-.158.474-.633.395-.237.395-.633.158-.395L83.5,57.875l1.58-1.58.948-.553,1.027-.948,1.185-1.659,1.027-1.659.158-.711.633-1.185v-.4l.316-.395.316-.791.237-.553v-.948l.237-.237-.078-.711Z" transform="translate(-20.925 -19)"/></svg>