<svg xmlns="http://www.w3.org/2000/svg" viewBox="0 0 88.849 82.923"><defs><style>.a{fill:#f5e221;}</style></defs><path class="a" d="M-9980.733-780.075h-1.129l-.563-.092-1.5-.376v-.282l.095-.376.657.092.848.284,1.6.187.377.189.75-.189-.187.563Zm-4.231-3.1-.563.189-.471-.753-.376.471-.377-.566v-.845l-.562-.847.471-.376,1.315.189.563.376.848.469.281.566-1.316-.189.846,1.411-.282.189Zm-12.411-1.221-.468-.658-.566-.095-.753-.469-.938-.847.28-.753.472.189h1.034l.472.282h2.068v.563l-.658.658.373.753-.468.471-.189.282Zm13.445-1.034h-.753l-.469-.471-2.258-.282-.657-1.034-1.6-2.821v-2.632l-1.882-1.787-2.444-1.692-.563-1.5-1.221-2.258-.753,1.034-.282-1.974-1.786.469.187.753-.471.753,1.882,2.163.188,1.411,2.632,2.445-.281.282,2.727,1.974.658,1.034-.187.563-.471-.94-1.411-.753-.658,1.411,1.035.847v.658l-.942.282-.187.563-1.126.753-.379-.187.095-.376.942-1.034-.658-1.974-.752-.471-.472-.94-1.224-1.316-.939-.189-1.221-1.411-1.6-2.35-.655-2.255-1.41-.753-2.258.753-1.6.658-2.54-1.787-1.6.845v.942l-.657,1.034-3.1.376v.469l-2.259,1.224.282,1.879-2.16,1.129-2.635.845-2.445-1.221-2.065.471-.471-.753-.095-1.692-1.882-.566-.469-.658-.752-.187.848-1.034.187-1.411-.563-.658.469-1.034h.471l1.6-1.882.942-2.255-.377-1.411.469-.563,1.129.187.753-.376.752,1.034,6.393,3.292,2.351-4.984-1.035-1.129.19-1.221-.753-1.411-.939-.658-.377-.658.187-.566,1.883.376.657.566,1.221.092.095-1.127.188-.566.753,1.224,1.41.095.189-.376.939-.376.939-.095.282-.94,3.01-.189.188-.658.848-1.034.75-.563,1.315-.658h1.129l.847-.189.94.753.189-.753.092-.563-.187-3.1.187-1.221.941-1.129,1.032-.376,1.037-.095-.189.753-.563,1.692-.752.847-.472,1.5v.658l1.224.566-.284.845,2.54-.753.188.66,1.222.75,1.787-.376.563-.469,1.881-.282.75.845h.755l.75-.94,1.035-.566V-820.6l.847-1.221,1.035-.189,1.126,1.6.753-1.224.281-1.221-1.127-.471-.188-.845.094-.566.377-.376,1.315-.092.658-.471,1.882.187.376-.469.374-.376,1.318-.189-1.129-.658-1.129-.376-1.785.095-1.881.94-.939-.187-.565-.658-.753-.563-.187-1.129.377-.658-.377-1.224.658-1.411,1.316-1.034.66-1.316,1.126-.94-.095-1.221-.845-.471h-1.315l-.848,1.505.095,1.127-.376.753-1.129.658-1.411,1.316-1.221,2.445-.095,1.129,1.315,1.879v.566l-1.315.563v.753l-.752.376-.846,1.787-.189,1.6-.657,1.129h-1.222l-.563,1.034-1.318-.095-.376-1.505.284-.374.092-.189.095-.753-.657-1.127-.095-1.129-.187-.471.282-1.787-.377-.658-.939.753-.941.189-1.6.75-.563-.187-.939-.847-.095-.845.281-.753-.094-.376.565-.187-.095-.471v-.753l.657-1.034-.752-.376.657-.469-.187-.471.281-.753.563-.187.752-.189.753-.658h.564l.752-.563h.939l.189-.095.845-1.034.753-.282.095-.376.845-.376.565-.94.188-.847.375-.75.282-.753h.471l.282-.847h.657l.472-1.034.752-.095.188-.563.563-.376v-.563l.658-.189.378-.75,1.222-.095-.095-.658,1.41.092-.187-.75.939.376.095-.66,1.034.376v-.658l.845.282,1.222-1.127,1.6.94-1.129.753,1.787.563,1.033.658,1.6-.187,2.54,1.411,1.5.469.755,1.224v.658l-.565,1.221-1.316.566-2.727-.566-1.881-.75,1.881,1.974.469,2.35.848.282,1.882.471.187-.282-1.5-1.034.376-.753,1.787.563,1.033-.095-.845-1.6,1.316-2.068.376-.095,1.035.471-.1-1.505-.562-.563-.942-2.539h1.692l1.034,1.034-1.126.376-.1.753,1.6.94.563-.376-.281-1.034.66-1.127,1.5-2.163.753-1.034v1.411l1.033-.282.095-1.034.658-.189,1.127-1.411.565.942.469-.095v-1.411l-1.127-.845.376-.471.751-.658,3.479-.189,1.411,2.445.281,1.881-1.5,4.7,1.879,2.539,2.916,8.555v2.255l1.411,1.129-.566,1.221-.845,1.224,2.163,1.411.658-1.224,1.315-.187.563,2.163,2.35,1.316,1.883.658.375.94-1.034.658-.565,1.034h-.938l-.659-.469-1.033.282-3.948,1.034-2.82,1.787.28,2.068,1.88,2.255.66,2.068.563,1.034-1.974,1.882-1.787,2.35-.658,2.35,1.315,1.034,1.411,2.163,3.855,2.632-.848,1.974-2.444-.658h-1.6l-1.129-.471-1.221-.658-1.692-.187-3.1.095-.657-.847-1.41-.471-4.138-1.692-1.129-.658v-.376l1.129-.376-.095-.75.472-.847-.658-.658h.75l1.034-1.221-.187-.284-2.35,1.224-2.633,1.316-.095.563.845,1.129,1.411-.282-.095.845h-1.126l-1.411,1.505h-1.034l-.282-1.034-1.223-.376,1.223-1.316-.471-.282-1.221.282-.379-.187.66-.847-1.5.187-2.163,1.695v.845l-.846,1.034-.375,1.505-.94,1.127-.565,1.882,2.258,1.787-.284.282h-1.032l-2.258,1.034-1.033-.471-2.256.284-.942,1.034-1.41-.66s.376,2.068.376,2.258v.753l1.692,1.127-.187,1.411Zm24.635-22.282-.471.563s-.189.753-.189.847v.563h1.223s-.188-.658-.188-.753v-1.974Zm1.315-6.111.469,1.034v1.316l-.469,1.6v1.316l.469.847.284-1.692-.284-.847.284-.94.187-.658v-1.224l-.375-.376.47-1.784Zm1.88-1.787.565-.282v-.376l-.282-.095Zm1.223-7.711-1.223.566-.563.469v.471l-.189.563-.093.658v.658h.282l.376.658.471.66.563.092.658-.469-1.034-.095.187-1.316-.468.469-.282.095-.284-.282.095-1.411.658-.94.752-.282.658-.471h-.187v-.376Zm-9.216-.753.284.847.282.471h.376v-.471l-.471-.471v-.845Zm-6.016-.75,1.882.845.563-.563-.281-.471-.658-.658-.941-.376.565.753-1.129-.376Zm-6.958-4.513v.563l.472.847.468,1.127.377.282.188-.374,1.127-.566h-.093v-.376l-.376-.845-1.691-1.034Zm4.042-.658,1.224.94.472-.376-.942-1.316-.095-1.129-1.126-.376.657.753-.281.376h-.658Zm-32.435,40.051-.095-.563.281-.753v-.563l.189-.658-.189-.66.189-.469.092.282,1.224-.095.658.566v.563l-.376.563v.753l-.471,1.129-.658-.471-.092.282-.19.471Zm-10.156-2.913.1-.095.187-.095h.284v.189l-.284.469Zm2.54.092v-.282l-.281-.187-.377-.189,1.222-.282v.376l.189.187-.189.376-.471.189Zm1.6-.845.471.095.188.374-.187.095Zm7.334-.847v-1.221l.095-.471.753-.095.373-.374-.092,1.5-.565,1.224Zm-7.992-20.308-1.221-.187-.377-.282-.753-.095-.471.187-.939-.376-.847.284-.374-.566,3.479-.75-.848-1.036-.847-.469.095-.658,1.882-.753-.658-.471,1.5-.469.471.469.752-1.034-.657-1.221.657-.753-1.6-.471.753-.845v-.658l-1.034.376.753-1.129.753-2.539,1.691-1.5,1.787.753-1.034.75-.753.189v.376l1.692.469-.095.847-.563.845-1.692.66,1.316,1.221-.095,2.255.753.753v1.129h-.753l.658.94-.377.658,1.5.753-.188.94-.656.376-.941.566.565.376v.469l-1.129.471Zm-5.076-5.171-2.634.095-.282-.845v-.847l.848-.282.752-.658-.189-.658.848-1.881,1.221.471.753-.942.939.284,1.6,1.411-.377.94-1.224.658-.281,1.129-1.034,1.411Zm28.487-1.411v-.563l.563-.845.471.282.095.753-1.129.94Zm4.042-1.784v-.284l.472-.187.752-.187v.374l-.752.471Zm.095-1.129-.095-.189.472-.187.563.376-.187.187-.376.095Zm-27.548-5.642.847-.282.282.282v.376l-1.315.189Zm45.788-15.419-.658-1.316.939-.187h.658v.469l-.376,1.034Zm4.513-5.266v-.282h.564l1.033.566v.187l-1.033.376Zm-2.913-.092-1.881-.471-.095-.282.095-.847-.377-1.784v-1.318l-.471-1.974v-.94l.471-1.316v-.753l1.034-.189.376-1.316v-.845l.472-.282.658.282.187.658-1.411,3.1.095,1.411.188,3.2.377,1.881,2.443,1.6-1.691.753Z" transform="translate(10030 862.999)"/></svg>