<svg xmlns="http://www.w3.org/2000/svg" viewBox="0 0 70 83.561"><defs><style>.a{fill:#f5e221;}</style></defs><path class="a" d="M17.329,21.455l.71-.261.3.121-.2.222Zm1.479.723h-.454l-.216-.246h.474l.276-.477.2.222ZM77.5,80.831,79.346,81l-.387.469H77.408ZM61.636,77.815h-.509l.219-.492.412.123Zm6.056,4-1.162.148-.125-.346-.358-.281,1.308-.167.7.343Zm1.3-.83a1.071,1.071,0,0,0-.222-.274,1.96,1.96,0,0,0,.347-.072A1.054,1.054,0,0,0,68.988,80.987Zm2.7.186.582-.22-.388-.371-.194-.666-.776-.123.7-.394.968.295.727-.172,1.162.123.6.642.731-.073.513.617-.266.517-.29-.176-.918-.232-.511.456-.315-.225-.34.1-.529.692-.485-.666-.778.049-.945-.049-.336.422-.558-.549.652-.22ZM66.143,73.6l.362.519.163.74.2.1v.592l-.468-.4.122-.42-.384-.3V73.6Zm-.111,3.357,1.012.643.334.421,1.357.147.217.55h.582l.7.543-1.55.392H66.824l.339-.6-.115-.373h-.76l-.557-.441v-.519H64.545L63.751,77H62.345l.266-.492H61.349l-.484.444h-.433l-.171.347-.7.12.363-.915,1.114-.516h1.452l2.011.272.6.494ZM61.189,17.091l.387-.067.424.591v.455l-.812-.118v-.861Zm.943,1.232-.247.287-.4-.287Zm-1.042.523h.795l.133.507.513.034.3.472-.265.364.546.514h.745l.911-.4.845.3.2.337-.52.658h-.755l-1.006-.067-.711-.085v-.257l-.558.257-.58-.4.281-.742-.048-.507-.031-.355-.431.253-.5-.54Zm-.447,4.4-.414.372-.332-.27.111-.756.265-.644.6-.388.5.355h.608l.153.236-.944,1-.762-.1Zm-.3-2.513.414-.455.48.067.1.389-.166.471h-.431ZM59.9,16.8V16.18l.448-.067.1.523.4.607-.153.625h-.349l-.067-.557-.53-.067Zm-.977,1.814.15.858.348-.422.33.422.15-.422.6.169v.32l-.48.3.116.22-.379.573-.611-.2.38-.642h-.647l-.314-.749Zm-.214,2.866.944.085.1.371-.6.661.315.453-.315.675H58.54l-.066.3-.381-.1-.082-.615-.646-.818L57.6,22.1l.513.493.307-.425-.374-.32Zm-1.473-4.605,1.043.094-.479.552-.647-.14ZM57.083,19.1l-.16-.607.447-.32.335.13-.2.815.574.152-.715.865L56.6,19.7l-.463.225-1.082-.033-.475-.372.921-.168-.182-.27-.678.1-.379-.692.81.121.152-.542.6-.195.465.425-.017.6.415.371ZM54.4,16.981l1.094-.345.944.33-.779.75-.266-.375-.56.375-.379-.118-.5.277-.45-.582Zm-4.9,3.165,1.837-.979.282-.675,1.175.2.082.607.745.1-.017,1.08.264.085-.335.557.335-.118.558.489-.291.3.464.168.331-.675.38.641-.348.928.348.085.3-1.012.264-.54.448.2-.116-.4.6-.253.431.574-.465.455-.419-.253.155.742-.513,1.6.778.979-.2.472-.613-.3.249.54-.1.32-.992-.135-.663-.237v-.523l-.876.27-1.308.085-1.043-.472.133-.658-.844-.455v-.76l.861-.067,1.01.59.447-.067L52.313,23l-1.291-.372-.133-.472L52.1,22.1l-.546-.067-.38-.642,1.192-1.047-2.037,1.164-.828-.22.165-.455ZM30.178,13.914v-.482l.37-.2-.079.342.079.342-.256.784-.474-.221Zm-3.793,3.217.493.241-.217.463-.375-.1Zm.69,7.9h-.73l-.631-.362.316-.39.612-.193.079.386h.335l.3.2Zm.75-.583h-.474v-.362h.474Zm3.69,12.507.1-2.283.415-.211.355.422-.631.663.059.765Zm48.51,13.723-.7-.172v-.617l.245-.716H80.1l-.025.765.243-.148.29.247ZM76.367,46.41l-.22-.1H77.4l1.03.692H77.408ZM85.039,47l.242-.223-.17.815.412-.346.2,1.16-.545.258v-.406l-.453.406-.1-.258Zm-24.17,45.43-.142-.165-.133.251-.364-.32v-.606l-.944-.508-.182-.438-.3-.167.133.4-.778-.3-.266-.513.056-.547-2.272-2.646-3.661-1.161L49.6,83.169l-.861-.253-1.093.523h-.828l-1.473-.625-.811-.558L43.7,81.92l-1.341-.826-.711-.76-.562-.134-.861-.406-.546-.895-.993-.708-.414-1.216h.4l-.066-.439.3-.606-.231-.517-.116-.81-.613-1.049L37.793,73l-.861-1-.1-.54-.381-.47-.48-.27-.166-.54.364-.337-.133-.335-.414-.154.033-.471-.282-.067-.249-.335-.016-.592-.3-.169-.745-1.6-.3-1.768.182-.6-.313-.142-.116-.439-.431-.05-.348-.457-.348.508L32.346,64.6l.546,1.049.016.387.464.875-.112.6.249.067.082.439.38.912.082.911.166.574.133,1.536.414.106.4.692-.049.646-.562.168-.231-.836L33,70.885l.249-.54-.016-.792-.546-.625-.082-.373h-.282l-.844-.843-.3-.692,1.042.4-.2-.424.231-.5-.364-1.063-.58-.575-.367-4.2-.662-1.214-.331-.169-.215-.558-.811-.49.033-.47-.4-1.852.282-.388-.249-.351.033-.709.282.136v-.546h-.2l-.3-1.2.3-1.89.58-.928.381-1.67.927-1.1,1.739-3.02.44-2.289-.414-1.182-.3-1.6.282-.287.464.777.7.793-.613-1.182-.1-.827.38-.658-.249-.455.231-.591-.315-.557.116-.658.38-.168.166-.329.1-.742.125-.637-.348-.22-.5.625-.082-.54.464-1.047-.049-.912-.5.22.5-.962.315-1,.249-.118-.149-.2-.133-2.008.3-.2-.58-.2.017-.642-.9-.81.066-.438-.1-.27.066-.76-.315-.438-.431-.085-.364.422-.464.3-.364-.371-1.655.085.133-.472.53.135.049-.422.48-.169.546-.3h.646l.315.27.1-.439-.464-.152H30.1l-.745.337-.6-.05-.679.1.1.337-.166.27-1.953.085-.447-.1-.331.152-.646.085-.562-.253-.679.085L23,23.3l-.082.118L22.1,23.3l-.2-.438-.5.085-.082-.372-.4.05-.182.22-.282-.3-.546-.27.38-.2.6.118v.253l.629-.034v.168l.282-.152.562-.034.447.27-.231.22.166.135.3-.287h.745l.414.287.249-.152,1.026-.135.911-.523.679-.1-.562-.253.149-.287-.6.118.3-.557-.182-.523-.613-.2.629-.523.431-.067.464-.507-.348-.2-.116-.439.7-.978.381.607.182-.185-.116-.32.116-.591.431-.472,1.126-.3.315.118.944-.32.082.168-.149.27.133.253.6.067.116.3.431.033.811-.725.414.118.215-.169-.38-.27-.414-.05.033-.4-.331-.287-.082-.49.546-.557.4-.033v-.49l.231-.287.844.4.728.152.133.287-.711.355.133.675.447.085.895-.742-.133-.355.646-.557.679-1.012.58-.2.6.625,1.573-.152.53.388-.116.27.562-.372.431.54.745.085-.016.507-.231.32.3.185-.38.793.265.085.2.287.066.793.348.3v.422l.58.455v.478l.257.482.081.044-.2.472.613,1.4.414-.32,2.136-.135.38.253L46.3,21.2l.563.169.646-.388.116.388-.364.49.016.523,1.01-.54-.5.895.911-.287,1.01,1.72.6.1.348.32.1.573-.944.168,1.077.692h1.159l.562,1.03-.249.574.4-.135.231-1.08,1.026-.185-1.045-.1.161-.372,1.181-.118-.2.607,1.228,1.012,1.757.118.016-.507h.513l-.546-.675.713-.709.762.591.153.692-.816.22.335.3-.468.455.513.523.033-.625.364-.085.679-.438-.211-.388.245-.507-.58-.557-.215-.337.335-.253-.153-.4,1.057-1,.5.4v.86l.379.523-.412.642.513.185-.082,1.282.447-.827.58.152.163.641-.331.337.4.86.528-.472.3-.76.4-.151-.1-.86.4-.253,1.273.659.067.641-.449.168.379,1.113-.513.574-1.007.438-.478-.27-.468-.118.153.472-.826.658.182.438-1.047.912-1.557.22.365.287-.314.472-.826.337-1.655,1.519-.348,1.147-.265.54.182.455.731.017.2,1.518-.315.422,1.421-.236,1.6,1.333.827.337.6.607,1.969.169v2.312l1.109,1.6.58.4.246-.421.379.455-.018-.625.231-.49-.332-.641.067-.928-.289-1.063,1.208-.607.66-1.2-.164-1.35-.944-1.114.612-.877-.335-1.147.166-.675-.369-.642.347-.506.781.237,1.048.135.283-.3,1.045.742.465.607,1.109.152-.017.962.2.945.743.169.5.625.977-.625.133-.523.265-1.182,2.787,2.981-.245.725,1.341.81.245.692.513-.388.379.337,1,.152-.513.49.6-.185.294.523.3-.2.466.2.335.81.467.456-.5.979.862-.145-.337,1.037-.07,1.012.512-.543.481.1-.29.445.484.149L84.2,45.6l.194.42-.1.642.6-.223V47l-.343.42L83.9,48.658h-.606l.588-.74-.532.123-.152-.4-.63.321-1.113.172-.847.2v-.5l.339-.568-.169-.519.169-.3v-.938l.592-1.634-1.259.422-.414.777-.58.54-2.9.135-1.557.32-.464.877-.431.016-.728.76L71.6,50.029l.546-.388.827-1.181,1.954-1.317,1.357-.152.513.76-.635.641-.895-.033.335.337.762-.22.067.843.913,1.063.661.152,1.456.152.315.22-1.273.895-.96.22L76.738,53.3l-.7-.337-.133-.692,1.058-1.029-.133-.32-.762.49-.668.121-.371.536-2.357,1.267-.431,1.451.6.709-.92.49-1.028-.067-.762.439,1.32-.1-1.672.54.066.574-.728,1.2-.53-.472.464,1.1-.424.49-.469.913-.067-.387.215-.523-.315-.371-.1-1.249-.448,1.146.3.3.132.607-.347.422.558.152.067.54.266.793-.812.523.281.32-.048.27-.795.067-.647.781-.546.108-.679.54-1.228,1.2L63.1,66.931l.02,1.35.447,1.114.077.645.58,1.451.05,1.333-.558.945H63.2l-.084-.49-.513-.54L61.734,71l.1-1.518L60.61,68.253l-1.047.424-.629-.792-1-.27-.946.27-1.451-.122-.364.575.546.516-.2.2-.612-.459-.944.27-.795-.7-.562.238-.977-.4-1.142.22-1.259.81-1.226.6L47.5,70.661l.063.927-.771,2.046-.315,1.739.3,1.788.762,1.671.345,1.216.728.117.58.643.728-.118L51.9,80.4l.828-.288.6-.659.379-1.569,1.838-.5,1.756.05.067.827-.732.708-.067.692-.478,1.579-.314.16-.144,2.092.252.522,2.59-.151,2.019.676.379.915-.843,3.578,1.755,2.654.417-.145.379.424,2.07-.928,1.638.375L67.695,92.9l-.728,1.664-1.094-1.74.415-.374-.331-.081-.768-.728-.606.169-.316.558-.446.152-.134.22.465.709-.911.27-.134-.59-.165-.239-.1.509-.612-.675-.547-.154-.3.036ZM66.4,28.312l.856-.582.356.315.18.436-.649.315ZM64.471,43.423v.445l-.8-.445.1-.272Zm-1.152-12.84.35.494.8.371-.219.568.436-.1.411.123-.217.519-.822-.074v-.346l-.584.049-.532.42-.727.3v-.642h-.678l.412-.4.435-1.629h.582l-.048.494Zm.933,2.766-.582.666-.582-.246.121-.519.75-.148Zm.871,1.111.121-.691.461.2-.217.494Zm1.8-11.142h-.951l-.692.534.881.267.022-.495.925-.136.908.994.762-.169.6.461,1.357.825.57,1.163-.595.146.26.558.762.436,1.284.291.161.509H74.4l-.379,1.407-.476.921-.88-.946-.922-.606-.31.534.809,1.019.827.339.452,1.236-.47.5-.809-.5-.928-.34.31.638,1.139.4.379.707L71.4,33.766l-.453-.666h-.974l-.55-.739-1.023-.9-.6.1-.441.356L66.41,32V30.759l1.069.048.595-.048.6-.364-.452-.582.692-.412.191-.655-.665-.994-1.187-.994-1.022-.848-.8.752-1.163-.606-1.178.05-.565-.388-.781-.558.9-.194-.238-.315h-.666v-.873l.9-1.213,1.218-.286-.538.577-.127.558.259.727.406-.34-.191-.606.448-.509,1.189-.169,1.362.146Zm.57-6.158-.828.2.38.777-.3.472-.778.49.431.507-.6.523-.335-.067-.215-.455-.812.264-.811-.1-.743-.169.264-.489h.762l-.314-.625.58-.084.245.385.214-.166V17.9l-.731.27-.134-.4-.793.355-.689-.877.529-.2-.693-.472.743-1.181.612-.27.465.843.469.438.364-.49-.685-.237-.111-1,1.273-.455.555.22.379-.574,1.607-.4,1.491.49-1.009,1.13L69.06,15l-.986,1.249ZM87.329,21.9,85.97,23.994l-.164.54.364.978-.187.843-.906.439v.4l-.429.2v.507l-.2.135.332.439.529.843V29.9l-.3.607.3.2.629,1.62-.1.438.2.333-.728.456L84.446,32.5l-.6.406-.791.336-.795-1.08-.893-.168v-.54l-.762-.236-.43-.777.3-.4-.3-.337-.332.54a8.419,8.419,0,0,1-1.921-1.957l.162-.439-.6-.3V26.9l.694.033.067-.472-.331-.607-.033-.978-.441-.034-.915.034.795.371-.461.438-.728-.27-.264-.574.425-.1-.425-.438h.79l.764-.034-1.189-.945h-.694l-.265.607-.466-.337V22.88l-.2-.81-.826-1.012-1.057-.573-.425-.507-.363-.2H70.576l-.63.4h-.794l-.431-.709-.629-.27h1.093l.4-.337-.027-.439-.469.27-.826-.135-.468-.4.693-.742.762-.573.334.168-.232-.777-.529.169-.266-.472.733-.877h.4l-.033-.472.732-.742.4.3.528-.3L70.84,13.5H71.6l-.2-.742.63-.3-.2-.507,1.258-.574h.4l-.162.472.558-.472h.993l-.03.475-.662.573.558-.034.37-.135.23.3-.164-.675.728.438.332-.54-.23-.407L76.436,11l.762.573-.214.877.513-.3.262.1-.164.507.561.2,1.26,1.452.6-.236.234.4.6-.3.63.3-.762.607.426.337.628-.3.2.3.661-.067-.1.81.559.1.795-.168-.466.877.826-.067-.133.979-.795-.1.067.776.826.067.264-.675.5.2.262.574,1.362.507.4.642-.692.2-1.159-.337.237.4.525.237-.231.911.734-.708.921-.135V21.9Z" transform="translate(-17.329 -11)"/></svg>