<svg xmlns="http://www.w3.org/2000/svg" viewBox="0 0 62.229 89.911"><defs><style>.a{fill:#f5e221;}</style></defs><path class="a" d="M-10007.3-773.131a.652.652,0,0,1,.208-.059c0,.1,0,0-.1.1C-10007.246-773.089-10007.271-773.121-10007.3-773.131Zm0,0c-.053.022-.091.042-.091.042C-10007.346-773.133-10007.321-773.138-10007.3-773.131Zm.107-.359.1.1v-.2a.78.78,0,0,1,.1.3C-10007.091-773.388-10007.191-773.288-10007.191-773.489Zm-1-.1c-.051.05-.126-.025-.227-.1a.394.394,0,0,0-.373-.1c.09.092.182.182.273.273a.176.176,0,0,0-.175-.074.373.373,0,0,1-.3-.1l.1-.1h-.2v-.1h-.1c.1-.1.3-.3.4,0a1.2,1.2,0,0,1,.282-.2c-.178-.01-.323-.1-.282-.3a.1.1,0,0,0-.1.1v-.1c-.1.1-.4.3-.4,0,0,.2-.2.2-.4.2,0,0-.2,0,0-.2-.1,0-.2,0-.2.1v-.2h-.1c0,.1-.1.1-.2.1v-.2s-.2.2-.3.2-.2,0-.3-.2c0-.1.1,0,0-.1.094.093.164.033.255-.025a.33.33,0,0,1,.445.025c0-.5.5,0,.8,0-.1-.1-.6-.3-.6-.4a1.568,1.568,0,0,0,.445.028.791.791,0,0,1,.654.174c-.107-.161-.045-.093.068-.025s.236.116.332.025c-.2-.3-1.3-.3-.9-.9.1-.1.6-.2.5-.4-.04-.161-.289-.1-.533-.033-.367.1-.728.194-.367-.466,0,.1.2,0-.1-.2.2-.1.6-.4.8-.4-.1.1.2.2.4.1a.894.894,0,0,1,.6.6c-.2-.3-.3.1-.2.2.085,0,.381.283.413.313.192.2.291.391.488.588a3.166,3.166,0,0,0,1.9.7c0,.55-1.141.579-1.914.511a2.44,2.44,0,0,1,.414.088c-.086.612-.786,0-.96-.161a.686.686,0,0,1-.138-.038.159.159,0,0,1-.066.173.3.3,0,0,1,.266.127l-.2.1c0,.2.2.1.4.2a.569.569,0,0,0-.2.076.269.269,0,0,1,.2.425C-10007.79-773.489-10007.891-773.688-10008.19-773.59Zm-.326.074.026.027Zm-1.174-.474h.257a1.57,1.57,0,0,0-.156.2C-10009.59-773.889-10009.59-773.889-10009.69-773.99Zm-.3-.1a1.25,1.25,0,0,0,.4-.04c-.1.076-.1.138-.1.138a.173.173,0,0,1-.124.042C-10009.932-773.948-10010.062-774.019-10009.99-774.088Zm.557.1c.024-.023.042-.029.042,0Zm-.056-.2a.278.278,0,0,1-.1.061A.636.636,0,0,1-10009.489-774.189Zm-.9-.7.1-.1c-.1,0-.1,0-.1-.1-.265.159-.335.038-.3-.081a.253.253,0,0,1,.077-.113,1.176,1.176,0,0,1-.5-.291c-.1.086-.27.1-.094.278.112-.022.127-.074.21.008.1-.2.1,0,.2,0,0,.5-.2.6-.3.2-.1,0-.2-.2-.2-.2h-.1v.1l-.1-.1c-.1.2-.1.3-.2.3-.2,0,.1,0-.2-.1l.2-.1c0-.1-.2-.2-.3-.2a.189.189,0,0,1,0,.3c-.2.1-.2-.4-.2-.4a1.011,1.011,0,0,0-.3.1c0-.232.3-.224.437-.208a.358.358,0,0,1-.237-.192h.229a.8.8,0,0,1-.129-.1h.1a.648.648,0,0,1,.212.022.378.378,0,0,1,.188.077c-.1-.2-.1-.1,0-.2-.5-.1-.1-.5-.1-.4.1-.1.9-.5,1-.4-.2-.2-.8.1-.8.1,0-.2-.1,0,0-.2-.184.061-.328.048-.414.1-.311-.1-.315-.007-.283.088s.086.161,0,.118l-.1-.1a.212.212,0,0,1-.2.2l.1-.1a6.53,6.53,0,0,1-.3-.8l.2.2c0-.1.5-.3.4,0,.1,0,.2,0,.2-.1,0,0-.2-.2-.1-.2,0,0,.5.2.1.5.5-.1.3-.3.1-.7h.2c0-.1-.7-.3-.8-.3.187.094.024.362.248.234a1.279,1.279,0,0,0-.149.368c-.1-.2-.4-.1-.3-.5-.2,0-.1-.1-.2.1-.1-.3-.3-.2-.3-.5,0-.1.3.2.3.2-.1-.1-.2-.5-.3-.6,0,.2-.1.2-.2,0v.1c-.1-.1-.1-.1-.1-.3l-.1.1c-.1-.2.2-.2.3-.1-.2-.3,0-.3.2-.4-.2,0-.2-.1-.1-.3-.3.3-.2.8-.6.2.1,0,.1,0,.2.1v-.1c.1,0,.1-.1.1-.2-.2.1-.3.1-.3-.1-.1.1-.4,0-.4-.1.1-.3.5,0,.7,0-.1,0-.6-.3-.5-.4.1,0,.3.1.4.1-.1-.1,0-.1,0-.2a.6.6,0,0,1-.4-.1v-.2c0-.1.1-.2.2-.1.2,0-.2-.2-.1-.4.1,0-.1-.3.2-.3-.3-.2-.3.5-.5.7a.224.224,0,0,1-.084-.053.789.789,0,0,0,.084.252v.1h-.1c.3.3.1.2,0,.4-.1-.1-.1-.1-.1-.2.1-.1,0-.2,0-.3-.1,0,0-.1,0-.2-.1,0,0-.2,0-.2l-.1-.1c0,.1,0,.1-.1.2,0,.1,0-.1-.1-.1v.5a.547.547,0,0,1-.3-.5c-.168,0-.18-.063-.157-.135-.1-.09.068-.189.157-.363.085,0,.022.149,0,.254a.123.123,0,0,0,.094.045c-.1-.2,0,0,0-.2a1.529,1.529,0,0,0,.164.12l.027-.014c-.024-.178-.091-.5-.091-.5-.188,0-.019,0-.173-.173a.382.382,0,0,1-.025.173.768.768,0,0,1-.2-.4c-.1,0-.1.1-.2.1.1,0,.1-.1.2-.1-.1,0-.3-.1-.2-.2.1,0,.1-.1.2-.1.075-.073.2.238.226.486a1.164,1.164,0,0,1,.187-.1c.007-.044.039-.062.075-.011a.023.023,0,0,1,.014.024c0-.2-.1-.3-.1-.5.2.1.5.6.3.7h-.014c.023.089.049.2.074.321.036-.128.112-.22.239-.22-.4-.1.1-.4.1-.5-.2,0-.5-.4-.7-.5h.6c.2.1.6.4.7,0-.1.2-.4,0-.4-.2a.6.6,0,0,0,.4.1.82.82,0,0,1-.594-.519c-.036.252-.626.4-.809.217l.1-.2c.2,0,.2.1.1.2,0,0,.4-.1.3-.2-.188.138-.264-.028-.264-.191s.071-.315.188-.206c0-.026.023-.051.075-.1.1,0,.1,0,0-.2a.549.549,0,0,0-.6-.4.1.1,0,0,0,.1.1c-.2.1-.6.1-.5-.4a1.1,1.1,0,0,0-.3.6c-.043-.086-.088-.06-.131-.038s-.116.065-.171-.161c-.1-.2.3-.6.5-.5-.164-.164-.118-.149-.046-.136s.146.025.146-.063c.2,0,.1-.3.1-.4,0,.2-.1.3-.2.3,0-.1-.1-.1,0-.3h.1c.175-.088.427-.177.485.005,0-.288.4-.172.315.193l.1-.2c.159.237.006.349-.018.336-.067.149.024.057.118-.037.3-.1,0,.5.1.5s.1-.1.2-.1a7.107,7.107,0,0,0-.075-1.258c-.007.017-.015.036-.025.057.1.1,0,.1,0,.2a.192.192,0,0,1,0-.37c-.026-.135-.061-.277-.1-.428a.975.975,0,0,1,.142-.3c-.027-.012-.043-.044-.043-.1.1,0,.1-.2.1-.3s0-.1-.1-.1a.351.351,0,0,0,.1-.2c.033.033.056.033.069.026a.092.092,0,0,1,.031.075c0-.052,0-.077-.014-.089.012-.011.014-.008.014.089,0-.1.2,0,.2,0,0,.1-.1.1-.2.1.054.027.1.047.14.063a1.106,1.106,0,0,0,.16-.564c-.1.4-.6-.1-.6-.3,0-.3.4-.5.1-.4-.1,0-.2-1.1.1-.9,0-.1-.3-1.1.2-.8,0,0-.1-.6-.2-.6-.4.4-.2-.2-.2-.3s.2-.1.3-.2c0-.1-.5-.1-.7,0-.1,0-.1.3-.3.3-.6,0-.8-1.2-.8-1.3,0-.5-.1-1.2.4-1.2a10.991,10.991,0,0,0-.3-1.6c-.1-.4-.3-.8-.4-1.2v-.8c.2.3.4-.7.4-.8,0,0,.5-1.7.5-1.9a11.378,11.378,0,0,0,.5-3.7c-.1-1.1-.5-2-.2-3.1.2-.6,0-.9-.1-1.5a4.188,4.188,0,0,1,.3-1.9,13.935,13.935,0,0,0,.4-3.5,4.351,4.351,0,0,0-.1-1.6,1.463,1.463,0,0,0-.2-.4,5.78,5.78,0,0,1,.4-1.4,15.3,15.3,0,0,0-.1-3.7,2.776,2.776,0,0,0-1-2.3,18.04,18.04,0,0,0-2.2-1.6c-1.6-.7-3.5-1-4.7-2.4-.7-.8-.3-1.7-1-2.5-.6-.8-1.1-1.5-1.6-2.3-1.1-1.7-1.9-4.4-3.7-5.4-.3-.1-1.1-.2-1.2-.5s.2-.3.2-.7c.1-.6-.6-1-.5-1.6.1-.7,1-1.2,1.4-1.6.3-.3.4-.3.4-.8.1-.3-.2-.7.1-1-.3.2,0,.6-.3.8,0-.1,0-.2.1-.2h-.1c0-.1.1-.1.1-.2-.2.2-.2.6-.5.6a1.805,1.805,0,0,1-.9-.6c.5.2.3-.8.3-1-.091-.182-.018-1.175.439-1.147-.394-.2.27-.883.361-1.154.1-.2.2-1.4.6-.9-.1-.4.8-.3,1-.6.1-.2-.1-.5.1-.8a.375.375,0,0,0,.3-.1c0-.2,0-.3-.1-.4.1-.1.1-.3.2-.4.3-.3.6-.1.9-.3a.221.221,0,0,0,.1-.3,5.16,5.16,0,0,0,.7-1.2l-.1-.1c.1-.1-.1-.1-.2-.2a.271.271,0,0,1,.2-.4c-.4-.1.3-1.6-.4-1.6.2-.2.4-.3.4-.5,0-.3-.3-.4-.3-.6.3.1-.4-.9-.4-1-.1-.4-.1-.6.2-.8.1,0,.5-.4.7-.4-.1-.2-.6-.6-.3-.9a2.182,2.182,0,0,1,.595.1,8.879,8.879,0,0,1,1.5-1.2c.1-.1.3-.2.3-.3,0-.025,0-.191-.016-.354-.013-.2-.037-.4-.085-.35.3-.3.4-.7.7-.9.4-.4,1.2-.4,1.3-.5.2-.3.4-.2.8-.3a3.142,3.142,0,0,0,1.6-.6c.2-.2.5-.7.8-.7,0,.2.2-.1.4-.2.5-.1.7.5.2.9-.5.3-1.2.4-.3.9-.2,0-.1.6-.2.9-.2.4-.4,1-.3,1a.815.815,0,0,0,.9.5c.6-.4.2-1.1,0-1.5-.3-.6-.5-.8.2-1,.5-.1,1.4-.7,1.3-.8.1-.1-.1-.9.4-.7.2.1.2.6.4.8.6.5,1.6-.1,1.9.8,0,0-.1.3.1.4a1.083,1.083,0,0,0,.8.2c.7,0,1.4-.6,2.1-.2a5.273,5.273,0,0,0,3.3.1.759.759,0,0,0-.37-.02c-.187.015-.375.033-.431-.081,0,0,.8-.1.9-.1a19.645,19.645,0,0,0,2.4-.1c-.3.4-1.2.2-1.4.5s.1.4.2.4c0,0,.2-.1.3,0,.2.1.2.3.3.5.2,0,.2-.3.1.2.1-.1.4,0,.5.1l.8.4c.6.4-.2,1.2-.8,1.2.2.4.9.2,1.2.1a1.9,1.9,0,0,1,1.3.2c1,.4,2.4,1.2,1.6,2.6.4-.2.3-.6.8-.6a1.123,1.123,0,0,1,.8.7c.4-.4.5.8.4,1,.4-.3.3-.6.9-.6.269,0,.857,0,.978.287-.011-.431,1.045-.086,1.323-.086a6.766,6.766,0,0,1,1.9.3c.2,0,.4.2.6.3a13.832,13.832,0,0,1,2,1.3,2.479,2.479,0,0,1,1,1.6c0,.1.294,1.571.3,1.6.375.289,1.188.274,1.1,1a.894.894,0,0,1-.5.8c-.4.4-.9.8-1.3,1.2-.3.4-.4,1-.8,1.3-.3.3-.8.3-1.2.5a4.125,4.125,0,0,0,1.1,0,5.946,5.946,0,0,1,1.1-.6c.8-.1.1.7.7,1,.1,0,.2.1.3.1a5.633,5.633,0,0,0,.7.1,2.56,2.56,0,0,0,.784-.292,4.27,4.27,0,0,0-.283,1.092c.2-.4,1-1.8,1.5-1.1-.078-.157.147-.679.2-.8a1.529,1.529,0,0,1,2-.3c.4.2.5.6.9.3a.372.372,0,0,1-.1.3.414.414,0,0,1,.476.083.92.92,0,0,1,.127.114.338.338,0,0,0,.1-.2.368.368,0,0,1,.1.3h.4s-.1.5,0,.5c.2-.1.3-.5.5-.2,0,.1.2,0,.2.1.093.192.369.923.482,1.08-.121-.078-.482.93-.482,1.12.5-.3.5-1.2,1.1-1.1-.1.1-.3.2-.3.4,0-.2,1-.3,1.2-.3.3,0,2.6,1,2.6.9a5.169,5.169,0,0,1,3.5,1.4c.9.7,1.5,1.9,2.7,2.2,0,0,1.3.1,1.6.7a5.6,5.6,0,0,1,.4,2.3v0h0a.7.7,0,0,0-.2.4c-.1.3,0,.7-.1,1a3.063,3.063,0,0,1-1.3,1.8,8.8,8.8,0,0,0-1.8,1.4c.1-.2,0-.3-.1-.3.1.1-.1.9-.4.8,0,0-.8,2-1.7,2,.2-.2,0-.4-.1-.6,0,.2-.2.5-.2.1-.1.2-.1.3.1.3-.1.1-.1.3-.2.4a1.853,1.853,0,0,1-.3.4,16.186,16.186,0,0,1-.9,5.7c-.1.2-.4.4-.5.7-.1.4-.1.8-.2,1.1-.3.5-.8,1.1-1.1,1.6-.3.6-.5,1.1-.8,1.6a16.067,16.067,0,0,1-1.3,1.3,1.9,1.9,0,0,1-1.541.216,2.953,2.953,0,0,0-1.06-.015c-.5.2-1,.3-1.5.5-.2,0-1.5.7-1.6.3.1.4-2.1,1.1-2,1.4.1.4-.3.3-.3.5l-.021.021.02-.019c-.4.4-.8.6-.7,1.4a3,3,0,0,1-.6,2.9,18.677,18.677,0,0,0-2.1,2.8c-.5.7-1.4,1-1.9,1.7a18.179,18.179,0,0,1-1.7,2.2,2.363,2.363,0,0,1-2.1,1.1,2.757,2.757,0,0,1-1.3-.3c-.4-.2-.9-.2-1.3-.4-.4-.1-.5-.4-.6-.8,0-.1-.1-.7,0-.8-.3.2-.1.5-.1.8,0,.2-.1.5-.1.6.1.6.4.6.8.9.6.4.5.5.5,1.1,0,.2-.1.4.1.6.2.3.4.1.5.3.7.8-.7,2-1.2,2.4a6.725,6.725,0,0,1-3.4,1c-.4,0-.9-.3-1.2-.2-.7.2-.1.4,0,.7s-.2.9-.2,1.3.3.7-.3,1a1.969,1.969,0,0,1-1.264-.151c-.461-.148-.887-.3-1.035-.148-.2.1-.1,1-.1,1.2.1.3,0,.4.2.5.2.2.4,0,.4.3.1,0,.3.1.4-.1,0-.1-.2-.1-.2-.2.8-.2.9.8.3.8-.3,0-.4-.4-.7-.5-.265-.106-.252.093-.123.289.118.179.329.357.521.312-.2.4-.8.4-.9.9-.1.4.1.7,0,1.1l-.3.7c-.2.2-.7.1-1,.3-.8.6-1.1,1.9,0,2.3.4.1,1,.1,1.1.5.083.249-.179.5-.441.633.175-.059.367-.061.441.168a4.393,4.393,0,0,0-1.5,1.8c-.1.2.1.8-.2,1-.284.213-.467.073-.621-.1.3.493-.468.867-.378,1.4.1.2.3.3.3.5,0,.5-.1.2-.5.4.4-.2,1.2.4,1.1.9-.5-.3-1.1.1-1.5.3-.6.3-.4.2-.4.8,0,.283,0,.737-.247.877a.247.247,0,0,1,.046.024h0c.1.2.5.1.2.5C-10010.29-774.788-10010.29-774.788-10010.391-774.889Zm-1-.7h0Zm-.2,0v-.031a.248.248,0,0,1-.033-.017Zm.465,0c-.16-.149-.258-.3-.165-.3.2,0,.2.1.1.2.1,0,1.1-.8.7-.9-.2,0-.3.3-.5.4s-.3,0-.5.1c0,0,.3,0,.3.1h-.3c0,.1.1.2-.1.2.126,0,.172.041.189.1.023.021.047.043.071.067a.125.125,0,0,1,.038-.006A.971.971,0,0,1-10011.124-775.592Zm-3.566-5.5c0-.007,0-.016,0-.026l0,0A.127.127,0,0,1-10014.69-781.089Zm0-.7.02-.038-.02-.011Zm.3-1.8Zm-.5-1.7Zm27.957-27.054,0,0Zm0,0,0,0Zm.006-.006.007-.006Zm.009-.009,0,0Zm-25.871-12.43v-.3c.1,0,.4-.1.4-.2a.215.215,0,0,0-.2-.2.341.341,0,0,1-.2-.1s.2,0,.2-.1a.716.716,0,0,1-.6-.3c0-.2-.6-.6-.7-.6a.351.351,0,0,0-.2.1c0,.1.2.4.2.6,0-.1-.1-.1-.2-.2,0,.1-.1.4.1.5.1,0,.1-.2.1-.2s.6.3.5.5a.6.6,0,0,0,.477.043C-10012.97-825.091-10012.88-824.7-10012.789-824.79Zm31.1-19.3Zm-47.1-.9Zm40.1-4Zm0,0-.1-.1A.5.5,0,0,0-9988.692-848.991Zm-7.1-4.9Zm-28.6-3.7Zm14.2,82.2c-.1-.2.2-.1.2-.1a.3.3,0,0,1,0-.4l.2.6a.61.61,0,0,1-.152-.013c.1.071.152.142.152.212C-10009.99-775.09-10010.091-775.289-10010.189-775.39Zm-.2.1Zm-2.1-.7h.1c-.2-.1-.4-.3-.6-.3h-.2v.1a.987.987,0,0,1-.5-.4v-.1a10.3,10.3,0,0,1,1,.4v-.1c.1,0,.1.1.2.2v-.1a1.29,1.29,0,0,0,.1.094c.1-.094.1-.1.2-.2l-.3-.1h.3c-.2-.2.3-.3,0-.3h.179c-.05.032-.078.089-.078.2l.2-.1a.608.608,0,0,1-.286.592.51.51,0,0,0,.087.007c0,.2-.3.1-.3.1s-.044.045-.073.045S-10012.49-775.955-10012.49-775.989Zm4.713-.087-.013-.013.016.016Zm-5.157-.712a.134.134,0,0,0,.044.1A.134.134,0,0,1-10012.935-776.788Zm.044-.1-.1.1c.1-.5.4-.2.1.1Zm0,0a.165.165,0,0,0-.044.1A.165.165,0,0,1-10012.891-776.89Zm.879.1.009,0,.014,0Zm-1.278-.5h.1a.1.1,0,0,1-.1-.1h.1c-.1,0-.2,0-.2-.1.1-.1.3.1.4.2-.1.1-.1.2-.2.2C-10013.189-777.089-10013.392-777.29-10013.29-777.29Zm-.6.1c.2-.1.3,0,.2.1A.351.351,0,0,1-10013.89-777.189Zm.619-.544a.06.06,0,0,1-.02.046.266.266,0,0,1-.3-.3c.074.075.258.149.308.224a.171.171,0,0,1-.008-.022c.3.1.5.3.4.4C-10013.076-777.576-10013.176-777.5-10013.271-777.734Zm-.72-.256c.2,0,.1.4.1.6C-10014.091-777.59-10013.789-777.688-10013.99-777.99Zm-.1.2c.2-.1,0,.2,0,.2Zm1.9,0-.052.033A.073.073,0,0,1-10012.19-777.789Zm-1.1-.4c.1-.1.1.3.1.3C-10013.392-777.99-10013.392-778.088-10013.29-778.189Zm-.7-.2-.1.1c0-.2.2-.3.3-.1a.2.2,0,0,0-.042.059c-.063-.054-.091-.027-.26.14Zm.159.059a.532.532,0,0,1,.042.039C-10013.832-778.289-10013.838-778.308-10013.831-778.329Zm-.36-.56v-.2h.1a.1.1,0,0,1-.1-.1h.1v-.1a.438.438,0,0,0,.1.3h.1c0-.2.1-.1-.1-.2a.124.124,0,0,1,.124,0c-.079-.063-.119-.16-.023-.3h-.2c.2-.2.4.3.5.4a.546.546,0,0,1-.251-.078.647.647,0,0,1,.15.381c-.1-.1-.2,0-.3.1C-10014.091-778.69-10014.091-778.788-10014.191-778.889Zm-.6-.3.1-.1-.1-.1h.3c-.1.1,0,.1-.2.1a.363.363,0,0,1,.1.3Zm.2-.5-.1.1-.1.1c0-.2,0-.2.1-.3,0,0,0,.2.1,0-.2,0-.2,0-.2-.2l.3.1a.313.313,0,0,1-.1.2c.1,0,.1-.1.2-.1.2,0,.1,0-.1.1-.1.1-.1.2-.2.2A.307.307,0,0,1-10014.589-779.689Zm-.1-.5Zm0,0c-.1-.1-.2-.1-.2-.2,0,0-.2.3-.1,0-.2-.2.2-.1.3.2Zm-.324-5.566c0-.121.018-.239.123-.133,0,.1,0,.2.1.1,0,.1-.1.1-.2.2,0,.007,0,.011,0,.011A.636.636,0,0,1-10015.015-785.755Zm-.075-.033c.1.1-.1.1-.1.2C-10015.191-785.589-10015.191-785.889-10015.09-785.788Zm.4-.1C-10014.69-786.289-10014.191-785.99-10014.69-785.889Zm0-.461c-.417-.157.389-.456.3.06,0,.1-.2.1-.2.1C-10014.777-786.283-10014.767-786.333-10014.692-786.349Zm-.4-.04c.1-.2.1.2.1.2C-10014.989-786.289-10015.09-786.289-10015.09-786.39Zm.3-.3a.35.35,0,0,1-.2.1C-10015.289-786.79-10014.391-786.79-10014.791-786.689Zm.1-.1s.1,0,0-.1c.2-.2.1.2.1.2Zm0-.3c-.1.1-.2.1-.3.2C-10015.39-787.09-10014.892-787.289-10014.69-787.09Zm.1,0c.1-.3.3,0,.1.1Zm.5-.4c.049,0,.074,0,.087.012l-.007.006a.036.036,0,0,1-.011.008A.117.117,0,0,0-10014.091-787.49Zm-1.3-1.7a8.495,8.495,0,0,0,0-1.6l.2.1c0,.1.2,0,.4,0s0,.9,0,.9h-.2c-.1.2.5.5.1.5l.2.2v.1h-.3l.1.3a.125.125,0,0,1-.087.025C-10015.17-788.663-10015.555-788.857-10015.39-789.189Zm28.457-23.157,0,0Zm0,0,0,0Zm.01-.009-.007.006Zm0-.005,0,0Zm.025-.025,0,0-.02.019Zm-26-12.9a.052.052,0,0,1-.024.043A.117.117,0,0,1-10012.891-825.288Zm32.784-17.32a.05.05,0,0,1,.016.02A.108.108,0,0,1-9980.106-842.609Zm-6.585-1.279-.016.008A.025.025,0,0,1-9986.691-843.888Zm1.405-.8,0,0C-9985.268-844.733-9985.27-844.729-9985.286-844.693Z" transform="translate(10029.999 863)"/></svg>