<svg xmlns="http://www.w3.org/2000/svg" viewBox="0 0 89.59 64.337"><defs><style>.a{fill:#f5e221;}</style></defs><path class="a" d="M89.59,26.475c.022-1.438-1.647-2.854-.782-3.677-1.136-.243-.568-1.046-.923-1.631-.028-.047.615-.227.152-.639-.235-.21-.6.112-.748-.264a7.852,7.852,0,0,1-.351-1.393c-.409-.454-1.114,0-1.525-1.026a2.173,2.173,0,0,0-.116.708c-.979-.13-2.172-2.256-1.25-2.93-.116-.222-.217-.516-.376-.8.133.1.4.194.576.311-.462-1.1-.107-2.29.946-2.411-.744-1.331-.774-4.007-1.639-4.94,1.954-.8-1.157-2.058-2.142-.413-.239-.264-.009-.155.078-.411a.459.459,0,0,0-.359.1c1.834-.889-.3-2.085-.807-2.4.244-.1.113-.176.114-.381.666.36,2.705-1.525,2.485-2.217h.27a.57.57,0,0,1-.088-.41,6.343,6.343,0,0,0-1.359-.17c.523-.674.083-.372.025-.6.014-.146.044-.854-.129-.879-.731.37-1.329,1.03-1.213,1.476-.041-.121-.325.455-.323.439a8.448,8.448,0,0,0,.9.029c-.639.764-2.192.578-3.314,1.81a15.29,15.29,0,0,0-2.839,3.869c2.393.021.1,2.043-.043.448-.062,1.2-1.12,2.263-1.012,3.4-1.066.678-1.4-.495-2.622.49-.3.243-1.312,2.338-1.639,1.974-.413-.457-.387.236-.782-.1a.3.3,0,0,1,.179-.369c-.919-.226-1.191.8-1.191,1.646.021-.185.044-.369.064-.554-.325-.007-.336.221-.653.242.115-.238.2-.563.281-.711-.639.417-1.121.713-1.716,1.1a7.151,7.151,0,0,0,.18,1.079c.043-.124.086-.247.128-.37.2.185.32.531.589.793a2,2,0,0,1-.686.49c.117.13.435.048.3.363-.934-.045-.675.019-.974.751-.423-.119-.689.079-1.1-.155.2.458.188,1.1.346,1.591a4.117,4.117,0,0,1-1.819-.925c.38-.612.239-.269-.1-.454-.243-1.693-1.3-.169-2.089-.823.324,1.011-.027,1.841-.9,1.519-.351.111-1.987-.483-2.035.765-.122-.2-.392-.306-.469-.674-.339.1-.523.138-1.031.264.435.914-.738,1.217-1.18,1.89.327-1.122,2.486-3.563,1.357-4.459.454-.637-1.312-1.64-1.639-.37-.342-.661-.289-.507-1.1-.61.769-1.5-1.215-.48-.705.951a2.92,2.92,0,0,1-.665.1c.076.1.321.328.346.456a8.294,8.294,0,0,1-1.108.389c-.087-.2.166-.339.121-.461a7.824,7.824,0,0,0-1.038.47c-.023.308-1.19.826-1.781,1.122.113.405-.121.476.026,1.007.025-.121-.386.093-.4.1.149.173.258.239.409.413-.427.233-2.425.213-2.338.688a6.472,6.472,0,0,0,.545,2.093c-.531-.363-1.511-1.742-1.769-.368-.992-.385-.359.592.142,1.149-1.313-.445-.911-1.3-.691-2.625-.311,1.072-1.653,2.072-1.485,3.647.182,1.7.632.084,1.189,1.22.451.917-.214,1.391.423,2.044-.661-.41-.944-3.629-1.577-.824-.33,1.47-2.252,2.3-2.753.61.755.609,1.189.2,1.757-.5.662-.819.152-.888.332-1.7.271-1.236,1.342-3.618,1.107-4.6-.444-1.859-1.786.911-2.337,1.128-.8.315-.587,2.565-.078,3.144a2.611,2.611,0,0,1-.551.768,10.364,10.364,0,0,0-1.738-2.759c-.677-.936-1.169.885-1.542,1.194.026-.318-.151-.319,0-.822a12.526,12.526,0,0,1-2.523-.511c.163-.2.358-.2.512-.328-.03-.123-.06-.245-.089-.368-.727.478-1.733-.236-2.384.227-1.821.458-1.687-1.28-.781-.751a1.242,1.242,0,0,0-.6-1.749,4,4,0,0,1-1.651,2.87c.341-1.28-.97-1.087-1.846-1.023-.061,1.792-1.178.59-1.127-.695-.258.354-.265,1.271-.52,1.476-.525.42-.761-1.128-.71-1.506.1-.713.838-1,1.077-1.588.159-.388.023-1.181.154-1.734.008.671,1.2,4.919,2.744,3.206,1.3-1.446-.529-4.228-.6-5.456a.9.9,0,0,0,.288.265.99.99,0,0,1-.064-.485c-.475-.1-.3-.144-.471-.283-1.614-.419-3.058,1.85-3.912,3.067-.481.685-1.154,1.068-1.551,1.63-.586.831.3.971-.627,1.519-.607.358-2.162.012-2.87.016a1.391,1.391,0,0,0,.448.341c-.052.375-.1.91-.167,1.417-.4-1.056-4.126-3.671-3.273-1.708-.912,1.091-2.2.7-1.276-.648-.937-.556-2.645.595-2.927,1.22a4.283,4.283,0,0,1-1.239-1.5c.626-.4-2.183-2.1-2.21-3.125.025,0,.076,0,.084-.04.072,0-.06.091-.054.056,1.2-.188-1.076-1.9-2.119-1.512,0,0,0,0,0,0,.267.5.021.172-.028.695a2.446,2.446,0,0,1-1.27-.026c-.071.025-.3.415-.411.4-1.171-1.024-1.27.719-1.344,1.3.056-.441.206,1.3.184,1.14a4.8,4.8,0,0,0-.78,1.751c.016.963,1.446,1.169,1.155,2.252a9.636,9.636,0,0,1-.825.791c-.847-1.563-2.886,2.279-.9,2.854.017.328.6.5.585,1.128a2.32,2.32,0,0,0-.288,1.2c-1.065-.09.028,1.244.028,1.254-.321-.332-1.167,1.043-1.194,1.359-1.256.434-.739.344-1.966,1.554.746.271,1.749,2.752,2.3,2.072a3.418,3.418,0,0,1,1.335,1.279c.446-1.92,5.156-.975,3.489-2.857.159.162.464.529.637.686.125-.119.111-.4.313-.447a3.636,3.636,0,0,0,2.2.26.965.965,0,0,0-.043.676,5.308,5.308,0,0,0-.646-.018c.371.473.429.912.824,1.309-.455-.161-.614.048-1.1-.1.557,1.049-.288,1.178.209,1.855a5.946,5.946,0,0,0,2.1.6c-.938-.5-.944-1.436-1.019-2.418.875,1.305,2.975,1,3.725,2.42-.511-.246-.794-.143-1.254-.4.018.232-.019.5.012.75-1.943.045-1.593.188-1.139,2.373.245,1.174.843,3.176-.339,3.826,1.835.8.1,2.982.832,4.266.641,1.119.636.5,1.408,1.17.352.305,1.852.217.464.826a1.392,1.392,0,0,0,.379,1.061c.451-.533,1.358-1.76,2.281-1.248-1.17-1.842-.206-6.41,1.251-6.979a9.31,9.31,0,0,1,3.461.244c1.692.908.191,1.65.173,2.818-.528-.734-1.427-1.127-1.583-.08-.182-.152-.663-.311-.832-.467a7.957,7.957,0,0,1-.115,4.617c1.64-2.547,1.31,3.955-.1.488a1.468,1.468,0,0,0-.563,1.736c.512-.352,0-.029.61-.16a5.558,5.558,0,0,0-.61.645,4.819,4.819,0,0,0,.519-.115,16.7,16.7,0,0,1-1,2.586c1.206.2,2.239-.291,3.1.406.939.756,1.291,2.684,2.354,3.275.241.135-.063,1.334.3,1.805.634.83,1.159.053,2.223.047.562,0,.918-.693,1.365-.826.873-.26.617.275,1.518-.324-.121.154-.241.311-.362.469.405.145.656.492,1.108.6-.018-.064-.012-.1.019-.1-.145.877.679.338,1.221.906.249-.26,2.473-1.957,1.855-.5H33.2c-1.176,1.85.187,1.047,1.123,1.172a14.424,14.424,0,0,0,1.915.289c-.329-1.967-1.953-3.02,1.013-3.875.1.654,3.285-.139,4.162-1,.6-.592.055-2.234.642-3.387-.181-.064-.4-.107-.565-.166,1.911-1.082,2.12.742,2.7-2.539a4.539,4.539,0,0,1,1.331.686c.922-.342.6-1.979,1.309-1.947a18.721,18.721,0,0,0,1.7-1.189c.765-.518,2.254-1.641,3.088-1.592,1.275.078,2.2,1.6,3.693.508.245-.18-.161-1.443.07-1.973.384-.873,1.3-.152,1.995-.152.846,0,.806,1.15,1.66,1.229s1.455-.508,2.32-.463c1.9.1,2.561.959,4.434-.539.625-.5.623-.922,1.356-1.236.424-.18,1.709.109,2.127-.295.677-.656,1.065-3.99.063-4.035-.591-2.941,3.67-2.023,4.729-1.02,1,.951,1.073,1.189,2.326,1.189.867,0,2.161,1.07,2.543.953.932-.287.834-2.484,1.818-2.086a6.579,6.579,0,0,1,.771,2.609c.029,1.439-.925,1.162-.969,2.281-.008.184,1.229,2.777,1.25,2.83.036-.52.186-.939.18-1.5l.273.3a.7.7,0,0,1,.1-.5c1.769,1.771,1.879-5.6,1.429-6.92-.5-1.469-.282-2.369-1.056-3.8-.608-1.119-1-2.959-2.166-3.037.069-.158.227-.246.288-.393-.761-.23-2.729-.48-1.8,1.059.024-.027-.487.375-.628.439-.117-.418-.2-.439-.308-.768.015.3-.085.547-.1.844-.542-1.49-1.1.291-1.48-.869a18.694,18.694,0,0,1,.217-3.132c.4-1.847-.756-4.406,1.613-5.259.057-.372.305-.617.424-1.135-.1.108.5-.123.435-.085-.22-.916.623-1.42,1.341-1.471-.362,1.482.742-1.285.981-1.625-1.97,1.16-.938-4.156-.911-4.5a8.843,8.843,0,0,1,.78.967v-.354c.063.053.329.408.334.411a9.631,9.631,0,0,1,.039-2.2c-.876-.3-1.037-1.172-.2-1.463-.229.526.817,2.181,1.074,2.981s.591,1.621.821,2.408c.247.84-.162,1.519-.019,2.066.629,2.394,4.218,3.992,6.132,4.88ZM11.506,20.534c-.04.036-.006.006,0,0ZM14.748,46.52c.011.045.162.637,0,0Zm4.773-4.791c-.09-.309-.087-.3,0,0Zm6.806,15.2Zm2.358,3.858c-.3-.184-.613-.141-.752-.629.168.535.429.437.752.629Zm.441.589Zm.755,1Zm3.21-1.365Zm.635.08c-.108-.322-.032-.1,0,0Zm.3.149c.054.359.058.383,0,0ZM37.5,57.692c-.095-.379.007.029,0,0Zm.269.117c-.109-.209.073.139,0,0Zm7.561-8.674Z"/></svg>