<svg xmlns="http://www.w3.org/2000/svg" viewBox="0 0 81.752 71.301"><defs><style>.a{fill:#f5e221;}</style></defs><path class="a" d="M18.947,24.45H17.4l-.246.571c-.408,0-.734.083-1.142.083l.491,1.062,1.062.325,2.2-1.062a5.545,5.545,0,0,0-.246-.654l1.388-1.142ZM81.51,44.622l-.979-.408-.083-2.125-2.042-.979-.817-1.471-1.062-1.308,1.879-2.2-.163-1.55-1.633-.408-.163-1.55-.654-2.042.9-1.388-.9-.408c.491-1.716.979-3.35,1.471-5.063l-.163-2.2-1.55-.083L73.1,19.062l-1.716-.325-2.367-1.388L67.546,17.1l-.9.491-1.388-.083-1.637,1.63-1.879.491-.163.654-3.267.734-3.021-.491-1.471-1.388-2.042-.571-.654-1.959-.488.163-1.308-1.388.734-1.308-.654-.817-.817.163-2.533,2.042-.734.083-1.471-.325L42.792,14l-.322-1.145-.817-.817-1.55-.654.163-1.388-.325-.979L37.9,7.627l-2.287.163L33.078,9.261l-1.8-.246-2.45.408L25.81,8.361,22.135,6.4l-3.513.083-2.45.817L13.639,9.1l-4-.408-.9,2.125L5.472,10.9,3.1,13.511l1.308,1.308L3.35,16.943,4.9,18.414l1.225,2.613,2.287-.083,2.042,1.388,1.471-.325.491-1.062,2.287.083,1.716,1.388,3.184-.325,1.471-1.55,1.8.571,1.308-.246-.817.979.817,1.225-.495,1.3.163,1.959v.083l-1.062,1.8-.734,2.045h-.083l-.325.654-.408,1.959-.571,1.142.163.163-.654.817-1.062.654-1.633-.163L15.76,34.9l-.491.817L14.7,34.5l-1.471-.325-1.793.163-.9.734L8.9,35.884c-1.633-.654-3.43-1.225-5.146-1.8L.98,34.171.246,35.4l.325.9L0,37.843.654,39.8V56.791H25.727l-.408-.491-2.45-2.039V52.79l.408-.408L21.4,49.848l-.654-1.308-.817-1.308-1.633-3.675-1.308-2.45-.9-2.533.246-.246,1.471,3.43c.571.654,1.062,1.225,1.633,1.879l.491-.408L20.5,42l.491-1.8.571-.979.083.325-.246.979-.083.817-.325,1.308h1.062c.817,1.225,1.55,2.367,2.367,3.592l.817,1.716.654.491.571,1.225-.08.495.734,1.308,1.142.491.979.9,1.225,2.533L30.378,56.8l.246,1.55,1.388,2.125.979.408,1.471,1.55.571,1.8,1.142,1.879,1.062.817.163.9.654.654.246.979.083.979-.246.408.246.979-.408.083.571.9.408,1.633.325.654L39.2,76.312l.571,1.308,1.471.083.654-.325,1.062.083.325-.571.571-.163.491-.571.571-.163,1.8-.083L48.1,75.5l1.225-.9.491.077.9-.083,1.879-1.55,3.35-1.062,2.125-.9.083-.734.408-.979,1.55-.571.979-.163,1.388-.734,1.142.246,1.062-.654v-.9l.817-.571h1.308l.491-.491.246-1.062,1.308-.817h.979L70,63.407l-.246-1.471.325-1.142.408-.571.979.083.817-1.55.9-.734c.325-.654.734-1.308,1.142-1.959v-.491l-.82-.249c-.491-.654-1.062-1.388-1.55-2.042l-1.225-.408-1.55-.325-1.142-.817-.979-1.55L66.732,48.3l.246-.408.163-.979-.169-.329-.654.817c-1.388,1.55-2.942,2.942-4.329,4.492-.979-.083-2.042-.083-3.021-.163l-1.633.325-.083-.654-.408.083-.408-.9.491-1.388V47.81l-.654-.734-.571.246-.571,1.225.163,1.716-.325-.571-.246-.734L54.15,48.3l-.246-.817.246-.817-.163-.979-1.471-.979-.325-.817-1.062-.571c-.491-1.308-1.062-2.613-1.471-3.921l.163-.571-.408-1.062,1.225.083.817-.979,1.308.817,1.142-.408,1.55,3.267,1.388,2.287,2.042.654,2.125,1.8,2.613.817,2.125-1.142,1.633-.408.979.408.9,2.859,2.367.325c2.125.491,4.167.9,6.288,1.225l.817-2.7,3.021-1.225Z" transform="translate(0 -6.402)"/></svg>